<?xml version="1.0" standalone="no"?>
<!DOCTYPE svg PUBLIC "-//W3C//DTD SVG 20010904//EN"
 "http://www.w3.org/TR/2001/REC-SVG-20010904/DTD/svg10.dtd">
<svg version="1.0" xmlns="http://www.w3.org/2000/svg"
 width="700.000000pt" height="700.000000pt" viewBox="0 0 700.000000 700.000000"
 preserveAspectRatio="xMidYMid meet">
<metadata>
Created by potrace 1.14, written by Peter Selinger 2001-2017
</metadata>
<g transform="translate(0.000000,700.000000) scale(0.100000,-0.100000)"
fill="#000000" stroke="none">
<path d="M1 5318 c1 -1035 5 -1650 10 -1598 31 296 135 722 228 932 19 43 20
35 20 -1286 1 -731 -1 -1327 -3 -1325 -10 11 -99 271 -130 381 -46 162 -92
392 -110 548 -12 112 -14 -32 -15 -1422 l-1 -1548 1226 0 1226 0 -3 655 c-2
442 -7 655 -14 655 -7 0 -9 -203 -7 -635 2 -473 -1 -635 -9 -635 -22 0 -215
73 -346 131 -648 286 -1199 773 -1574 1390 -71 117 -209 383 -209 402 0 4 459
7 1020 7 l1020 0 3 -302 c2 -254 2 -239 3 87 0 215 -1 362 -3 328 l-4 -63
-364 0 -365 0 0 630 0 630 556 0 c474 0 555 -2 551 -14 -3 -8 -8 -58 -11 -113
l-5 -98 13 115 c8 63 24 144 36 180 52 156 179 305 437 516 190 156 259 230
318 345 74 143 88 213 89 419 0 144 -4 193 -22 279 -44 202 -147 463 -252 640
-28 46 -49 86 -47 87 7 7 185 -135 285 -225 349 -318 573 -717 676 -1209 49
-235 61 -364 61 -687 0 -293 -1 -302 -27 -396 -14 -53 -40 -131 -57 -174 l-32
-79 -2 -348 c-1 -191 -1 -348 0 -348 1 0 9 13 18 30 13 25 16 87 18 382 l2
353 27 73 c15 40 35 112 44 160 9 48 18 93 20 100 3 9 129 12 589 12 l585 0 0
-630 0 -630 -510 0 -510 0 2 -107 c2 -103 2 -104 5 -26 l4 83 1124 0 c619 0
1125 -4 1125 -8 0 -21 -163 -329 -234 -442 -437 -697 -1079 -1204 -1861 -1471
l-140 -48 1263 -1 1262 0 -1 1553 c-1 883 -5 1518 -10 1472 -23 -223 -99 -585
-158 -745 l-20 -55 0 1140 c0 647 3 1134 8 1125 17 -28 89 -296 114 -420 24
-115 51 -299 60 -395 2 -22 4 717 5 1643 l2 1682 -3500 0 -3500 0 1 -1682z
m3944 1523 c452 -61 865 -196 1256 -413 l146 -81 -16 -53 -16 -54 -762 0 -761
0 -7 33 c-18 86 -89 157 -177 177 -122 26 -247 -55 -273 -178 l-7 -32 -755 2
-756 3 -12 48 c-7 27 -22 61 -33 77 -25 34 -29 30 98 98 406 217 897 355 1405
396 124 10 525 -4 670 -23z m-295 -462 c39 -22 75 -69 85 -111 l7 -28 -182 0
-182 0 7 28 c20 84 112 148 195 136 19 -3 51 -15 70 -25z m-1922 -36 c11 -16
24 -45 30 -65 l10 -38 -136 0 -137 0 100 65 c55 36 103 65 107 65 3 0 15 -12
26 -27z m3725 -68 l52 -35 -68 0 c-37 0 -67 4 -67 9 0 15 19 61 25 61 3 0 29
-16 58 -35z m-3883 -1047 l0 -631 -142 6 c-79 4 -362 7 -630 7 l-488 0 0 105
0 105 59 119 c151 300 335 564 574 824 l90 97 268 0 269 0 0 -632z m1300 2 l0
-630 -635 0 -635 0 0 630 0 630 635 0 635 0 0 -630z m1300 0 l0 -630 -25 0
c-20 0 -28 8 -42 43 -36 91 -126 260 -191 359 -91 138 -195 261 -331 390 -108
104 -337 285 -347 276 -2 -3 14 -36 38 -74 181 -297 308 -682 308 -933 l0 -61
-340 0 -340 0 0 630 0 630 635 0 635 0 0 -630z m1290 188 c0 -244 3 -527 7
-630 l6 -188 -636 0 -637 0 0 630 0 630 630 0 630 0 0 -442z m597 345 c174
-189 334 -401 452 -601 113 -189 251 -481 251 -528 l0 -24 -538 0 c-297 0
-580 -3 -630 -6 l-92 -7 0 632 0 631 234 0 233 0 90 -97z m-4487 -1823 l0
-630 -630 0 -630 0 0 630 0 630 630 0 630 0 0 -630z m1300 145 l0 -484 -53
-79 c-30 -43 -65 -108 -78 -145 l-24 -67 -557 0 -558 0 0 630 0 630 635 0 635
0 0 -485z m706 428 c-18 -146 -70 -284 -150 -397 -51 -72 -88 -107 -256 -242
-69 -56 -158 -131 -197 -169 l-73 -67 0 466 0 466 341 0 341 0 -6 -57z m594 5
c0 -60 -2 -59 -23 5 -15 45 -15 47 4 47 16 0 19 -7 19 -52z m1300 -578 l0
-630 -584 0 -583 0 -6 263 c-5 281 -21 435 -64 627 -18 79 -28 155 -30 243
l-5 127 636 0 636 0 0 -630z m1290 0 l0 -630 -630 0 -630 0 0 630 0 630 630 0
630 0 0 -630z m-5190 -1290 l0 -630 -630 0 -630 0 0 625 0 625 368 3 c202 1
485 3 630 5 l262 2 0 -630z m4907 620 l283 0 0 -594 c0 -405 -3 -603 -11 -625
l-11 -31 -619 0 -619 0 0 632 0 631 347 -6 c190 -4 474 -7 630 -7z"/>
<path d="M2705 2984 c5 -99 56 -248 117 -341 l48 -74 0 -254 0 -255 583 2
c320 2 450 4 290 5 l-293 3 0 140 0 140 38 0 c61 0 188 37 269 77 94 47 214
143 279 224 61 76 128 179 121 186 -3 3 -13 -10 -23 -29 -48 -96 -186 -248
-284 -315 -131 -89 -269 -133 -414 -133 -228 0 -397 63 -531 198 -100 99 -174
263 -195 429 l-9 68 4 -71z m356 -555 c74 -37 182 -67 275 -75 l74 -7 0 -138
0 -139 -255 0 -255 0 0 235 0 235 52 -41 c29 -22 78 -54 109 -70z"/>
<path d="M2393 2473 c9 -2 25 -2 35 0 9 3 1 5 -18 5 -19 0 -27 -2 -17 -5z"/>
<path d="M2349 2453 c-13 -16 -12 -17 4 -4 9 7 17 15 17 17 0 8 -8 3 -21 -13z"/>
<path d="M2495 2440 c10 -11 20 -20 23 -20 3 0 -3 9 -13 20 -10 11 -20 20 -23
20 -3 0 3 -9 13 -20z"/>
<path d="M2321 2384 c0 -11 3 -14 6 -6 3 7 2 16 -1 19 -3 4 -6 -2 -5 -13z"/>
<path d="M4318 2363 c6 -2 18 -2 25 0 6 3 1 5 -13 5 -14 0 -19 -2 -12 -5z"/>
<path d="M4239 2303 c-13 -16 -12 -17 4 -4 16 13 21 21 13 21 -2 0 -10 -8 -17
-17z"/>
<path d="M2543 2265 c0 -27 2 -38 4 -22 2 15 2 37 0 50 -2 12 -4 0 -4 -28z"/>
<path d="M2322 2230 c0 -19 2 -27 5 -17 2 9 2 25 0 35 -3 9 -5 1 -5 -18z"/>
<path d="M4431 2194 c0 -11 3 -14 6 -6 3 7 2 16 -1 19 -3 4 -6 -2 -5 -13z"/>
<path d="M2580 2155 c13 -14 26 -25 28 -25 3 0 -5 11 -18 25 -13 14 -26 25
-28 25 -3 0 5 -11 18 -25z"/>
<path d="M4442 2110 c0 -19 2 -27 5 -17 2 9 2 25 0 35 -3 9 -5 1 -5 -18z"/>
<path d="M4119 2113 c-13 -16 -12 -17 4 -4 9 7 17 15 17 17 0 8 -8 3 -21 -13z"/>
<path d="M2778 2073 c6 -2 18 -2 25 0 6 3 1 5 -13 5 -14 0 -19 -2 -12 -5z"/>
<path d="M4461 1734 c0 -11 3 -14 6 -6 3 7 2 16 -1 19 -3 4 -6 -2 -5 -13z"/>
<path d="M4471 1674 c0 -11 3 -14 6 -6 3 7 2 16 -1 19 -3 4 -6 -2 -5 -13z"/>
<path d="M4482 1610 c0 -14 2 -19 5 -12 2 6 2 18 0 25 -3 6 -5 1 -5 -13z"/>
<path d="M4477 1541 c-4 -17 -3 -21 5 -13 5 5 8 16 6 23 -3 8 -7 3 -11 -10z"/>
<path d="M4425 765 c0 -424 1 -595 2 -382 2 214 2 560 0 770 -1 210 -2 36 -2
-388z"/>
<path d="M2340 1324 c0 -18 27 -36 47 -31 14 4 14 5 -4 6 -12 0 -27 9 -32 19
-6 9 -11 12 -11 6z"/>
</g>
</svg>
