<svg id="Layer_1" data-name="Layer 1" xmlns="http://www.w3.org/2000/svg" viewBox="0 0 122.88 38.7"><defs><style>.cls-1{fill:#25d366;fill-rule:evenodd;}.cls-2{fill:#fff;}.cls-3{fill:#21be5c;stroke:#25d366;stroke-miterlimit:2.61;stroke-width:0.22px;}</style></defs><title>whatsapp-share-button</title><path class="cls-1" d="M118.69.11H4.19A4.2,4.2,0,0,0,0,4.3V34.4a4.2,4.2,0,0,0,4.19,4.19h114.5a4.2,4.2,0,0,0,4.19-4.19V4.3A4.2,4.2,0,0,0,118.69.11Z"/><path class="cls-2" d="M52,21.45l3.13-.23a3,3,0,0,0,.42,1.34,1.65,1.65,0,0,0,1.45.75,1.45,1.45,0,0,0,1.09-.38,1.26,1.26,0,0,0,.38-.89,1.21,1.21,0,0,0-.36-.86,3.7,3.7,0,0,0-1.68-.72A6.63,6.63,0,0,1,53.33,19a3.19,3.19,0,0,1-.94-2.38,3.57,3.57,0,0,1,.48-1.8,3.32,3.32,0,0,1,1.43-1.34A6,6,0,0,1,56.93,13a4.81,4.81,0,0,1,3.12.88,4,4,0,0,1,1.27,2.81l-3.1.22a2.07,2.07,0,0,0-.52-1.23,1.52,1.52,0,0,0-1.09-.38,1.2,1.2,0,0,0-.87.28.94.94,0,0,0-.29.69.72.72,0,0,0,.24.53,2.35,2.35,0,0,0,1.1.46,12.34,12.34,0,0,1,3.09,1.09,3.46,3.46,0,0,1,1.36,1.38,3.92,3.92,0,0,1,.43,1.83,4.4,4.4,0,0,1-.57,2.2,3.7,3.7,0,0,1-1.59,1.52,5.56,5.56,0,0,1-2.56.52c-1.82,0-3.08-.4-3.77-1.21A5.18,5.18,0,0,1,52,21.45Zm-26.7-.14c-.24-.13-1.44-.72-1.67-.8s-.38-.12-.55.13-.63.79-.77.95-.28.19-.53.07a7,7,0,0,1-2-1.22,7.21,7.21,0,0,1-1.36-1.69c-.14-.24,0-.37.11-.49s.24-.29.37-.43a1.52,1.52,0,0,0,.24-.41.44.44,0,0,0,0-.42c-.06-.13-.55-1.33-.75-1.82s-.4-.41-.55-.42h-.47a.92.92,0,0,0-.65.3,2.74,2.74,0,0,0-.85,2,4.79,4.79,0,0,0,1,2.52A10.91,10.91,0,0,0,21,23.3c.58.25,1,.4,1.39.52a3.49,3.49,0,0,0,1.54.1,2.49,2.49,0,0,0,1.64-1.16,2,2,0,0,0,.15-1.16c-.06-.11-.22-.17-.47-.3Zm2.46-8.95A9.77,9.77,0,0,0,12.38,24.14L11,29.2l5.17-1.36A9.77,9.77,0,0,0,20.84,29h0a9.77,9.77,0,0,0,6.9-16.67Zm-6.91,15a8.07,8.07,0,0,1-4.13-1.14l-.3-.17-3.07.8.82-3L14,23.58a8,8,0,0,1-1.25-4.32,8.12,8.12,0,0,1,13.86-5.74A8,8,0,0,1,29,19.26a8.15,8.15,0,0,1-8.12,8.13ZM63.13,13.15h3.3v4.33H70V13.15h3.31V25.54H70v-5h-3.6v5h-3.3V13.15Zm19,10.35H78.37l-.54,2H74.46l4-12.39h3.61l4,12.39H82.64l-.54-2Zm-.69-2.68-1.17-4.45-1.17,4.45Zm5.77,4.72V13.15h5.5a6.91,6.91,0,0,1,2.33.31,2.55,2.55,0,0,1,1.31,1.13,3.84,3.84,0,0,1,.49,2,3.93,3.93,0,0,1-.38,1.78,3.25,3.25,0,0,1-1,1.22,3.85,3.85,0,0,1-1.16.49,3.18,3.18,0,0,1,.86.45,3.6,3.6,0,0,1,.52.66,5,5,0,0,1,.46.77l1.61,3.57H94l-1.76-3.77a3,3,0,0,0-.6-1,1.25,1.25,0,0,0-.81-.28h-.29v5Zm3.31-7.35h1.39a4.59,4.59,0,0,0,.88-.17.83.83,0,0,0,.53-.39,1.27,1.27,0,0,0,.21-.72,1.22,1.22,0,0,0-.33-.92,1.74,1.74,0,0,0-1.23-.33H90.49v2.53Zm8.24-5h8.83V15.8H102v2h5.12V20.3H102v2.44h5.68v2.8h-9V13.15Z"/><polygon class="cls-3" points="40.66 0.11 40.66 38.59 38.27 38.59 38.27 0.11 40.66 0.11 40.66 0.11"/></svg>